<svg width="1024" height="1024" version="1.1" xmlns="http://www.w3.org/2000/svg" desc="Created with imagetracer.js version 1.2.6" ><path fill="rgb(170,166,161)" stroke="rgb(170,166,161)" stroke-width="1" opacity="0.06274509803921569" d="M 730 13 Q 741.4 10.9 746 16.5 Q 746.8 20.3 744.5 21 L 742 20 L 743 28 L 745 28.5 L 745 37.5 L 743.5 40 L 745 40.5 L 744 43.5 L 744.5 45 L 743 44.5 L 742 50.5 L 747.5 57 L 749.5 57 L 773.5 57 L 775.5 58 L 777.5 57 L 783 59 L 783 101.5 L 781 114 Q 777.7 115.3 779 110.5 L 778 110.5 L 779 117.5 L 779 119.5 L 778 130.5 Q 781.6 131.9 781.5 137 L 786.5 134 L 792.5 134 L 799.5 132 L 805.5 135 L 806.5 133 L 808.5 133 Q 811.1 132.3 810 135 L 814.5 135 L 816.5 133 L 842.5 133 L 844.5 134 L 851.5 132 L 853.5 133 L 854.5 132 L 891 132 L 891 140.5 L 890.5 141 L 812.5 141 L 811.5 140 L 786.5 140 L 784.5 141 L 781 140 L 775 132.5 L 775 64.5 Q 777.8 63.4 777 60 L 774.5 59 L 746.5 59 L 742 55.5 L 739 50.5 L 738 23.5 L 739 19.5 L 737.5 18 L 730 18 L 730 13 Z M 847 135 L 847 136 L 849 136 L 847 135 Z M 818 136 L 818 137 L 821 137 L 818 136 Z M 844 136 L 844 137 L 846 137 L 844 136 Z " /><path fill="rgb(170,166,161)" stroke="rgb(170,166,161)" stroke-width="1" opacity="0.06274509803921569" d="M 745.5 22 L 746 25.5 L 745 25.5 L 745.5 22 Z " /><path fill="rgb(170,166,161)" stroke="rgb(170,166,161)" stroke-width="1" opacity="0.06274509803921569" d="M 702.5 48 L 705 48.5 L 705 55.5 L 704 58 L 701.5 59 L 669 59 L 668.5 63 L 668 59.5 L 669.5 58 L 682.5 58 L 683.5 57 L 685.5 57 L 698.5 57 L 699.5 56 Q 701.2 58.7 703 54.5 L 702.5 48 Z " /><path fill="rgb(170,166,161)" stroke="rgb(170,166,161)" stroke-width="1" opacity="0.06274509803921569" d="M 666.5 75 L 667 78.5 L 666 83.5 L 667 85.5 L 667 87.5 L 665 91.5 L 666 93.5 L 665 94.5 L 665 102.5 L 666 105 Q 663 103.8 664 107.5 L 663 107.5 L 662 105.5 L 664 97.5 L 663 92.5 L 665 89.5 L 665 87.5 L 665 76.5 L 666.5 75 Z " /><path fill="rgb(170,166,161)" stroke="rgb(170,166,161)" stroke-width="1" opacity="0.06274509803921569" d="M 668.5 81 L 669 88.5 L 668 88.5 L 668.5 81 Z " /><path fill="rgb(170,166,161)" stroke="rgb(170,166,161)" stroke-width="1" opacity="0.06274509803921569" d="M 668.5 107 L 669 132.5 L 666.5 136 L 664 137.5 L 662.5 140 L 660.5 141 L 613.5 141 Q 612 137.5 610.5 140 Q 598 142 592 137.5 L 597.5 137 L 599.5 137 Q 607.2 136.2 611 138 L 610 132 L 659.5 132 L 661 130.5 L 660 128.5 L 660 113.5 L 661.5 114 L 665 114 Q 663.5 117.7 666.5 117 L 668 117.5 L 668.5 107 Z " /><path fill="rgb(170,166,161)" stroke="rgb(170,166,161)" stroke-width="1" opacity="0.06274509803921569" d="M 554.5 133 Q 560.6 131.8 560 134.5 Q 562.3 135.8 559.5 137 L 558 137.5 L 563.5 138 L 565.5 137 L 567.5 137 L 569.5 138 L 573.5 137 L 575.5 137 L 586.5 138 L 588.5 137 L 587.5 139 L 579.5 138 Q 578.3 140.3 573.5 139 L 570.5 138 L 570.5 139 L 572 139.5 L 567.5 140 L 565.5 140 L 563.5 139 L 561 140 L 559 144.5 L 560 145.5 L 560 160.5 L 559 163.5 L 560 168.5 L 557.5 173 Q 554.9 173.8 556 170.5 L 557 169.5 L 557 145.5 L 559 139 L 554 140 L 553 134.5 L 554.5 133 Z " /><path fill="rgb(170,166,161)" stroke="rgb(170,166,161)" stroke-width="1" opacity="0.06274509803921569" d="M 887 169 L 890 170.5 L 891 174.5 L 889.5 174 Q 886.2 172.9 887 175.5 L 886 178 L 872 180 Q 870.7 183.3 875.5 182 L 875.5 183 L 855 183 L 855 218.5 L 854.5 219 L 847 219 L 846 215.5 L 846 182.5 L 851.5 174 L 874.5 174 L 875.5 173 L 885.5 173 L 887 171.5 L 887 169 Z M 857 179 L 855 182 L 858 182 L 857 179 Z " /><path fill="rgb(170,166,161)" stroke="rgb(170,166,161)" stroke-width="1" opacity="0.06274509803921569" d="M 590.5 208 L 593.5 209 L 597 209 L 597 216.5 L 593.5 219 L 589 212.5 L 589 209.5 L 590.5 208 Z " /><path fill="rgb(170,166,161)" stroke="rgb(170,166,161)" stroke-width="1" opacity="0.06274509803921569" d="M 605.5 215 L 608 215.5 L 604.5 218 L 604 216.5 L 605.5 215 Z " /><path fill="rgb(170,166,161)" stroke="rgb(170,166,161)" stroke-width="1" opacity="0.06274509803921569" d="M 611.5 215 L 618 215.5 L 611.5 216 L 611.5 215 Z " /><path fill="rgb(170,166,161)" stroke="rgb(170,166,161)" stroke-width="1" opacity="0.06274509803921569" d="M 623.5 215 L 631.5 215 L 633 216.5 L 637 224.5 L 637 317.5 L 638 318.5 L 629 319 L 629 254.5 L 630 253.5 L 630 245.5 L 632.5 242 L 633.5 244 L 634 237.5 Q 630.8 235.2 632 228.5 Q 635 227.3 634 223 Q 631.3 224.1 632 221.5 L 633 218.5 L 630.5 216 L 623.5 216 L 623.5 215 Z " /><path fill="rgb(170,166,161)" stroke="rgb(170,166,161)" stroke-width="1" opacity="0.06274509803921569" d="M 811.5 215 L 842.5 215 L 844 216.5 Q 845.3 220.7 840.5 219 L 839.5 220 L 817.5 221 Q 816.2 218.8 815 221.5 L 814 224.5 L 813.5 244 L 810.5 243 L 814 247.5 L 814 331.5 L 812.5 332 L 810 333 L 810 322.5 L 808 322 L 808 320.5 L 806 317.5 L 806 227.5 L 811.5 215 Z " /><path fill="rgb(170,166,161)" stroke="rgb(170,166,161)" stroke-width="1" opacity="0.06274509803921569" d="M 706.5 280 L 714.5 281 L 715.5 280 L 736.5 280 L 736.5 281 L 732 281 L 732 286 L 724.5 286 L 723.5 285 L 708 285 Q 709.7 280.9 705.5 282 L 706.5 280 Z " /><path fill="rgb(170,166,161)" stroke="rgb(170,166,161)" stroke-width="1" opacity="0.06274509803921569" d="M 739 281 L 745 282.5 L 739 283 L 739 281 Z " /><path fill="rgb(170,166,161)" stroke="rgb(170,166,161)" stroke-width="1" opacity="0.06274509803921569" d="M 746.5 287 L 747 308.5 L 746 308.5 L 746.5 287 Z " /><path fill="rgb(170,166,161)" stroke="rgb(170,166,161)" stroke-width="1" opacity="0.06274509803921569" d="M 701.5 292 L 702 311.5 L 700 312.5 L 700 295.5 L 701.5 292 Z " /><path fill="rgb(170,166,161)" stroke="rgb(170,166,161)" stroke-width="1" opacity="0.06274509803921569" d="M 700.5 317 L 701 319 L 697 318.5 L 700.5 317 Z " /><path fill="rgb(0,0,0)" stroke="rgb(0,0,0)" stroke-width="1" opacity="0" d="M 0 0 L 1024 0 L 1024 1024 L 0 1024 L 0 0 Z M 730 13 L 730 18 L 705 18 L 705 48 L 702 49 Q 704 50 703 55 Q 701 59 700 56 L 699 57 L 686 57 L 684 57 L 683 58 L 670 58 L 668 60 L 669 64 L 669 81 L 668 82 Q 666 88 669 90 L 668 118 L 667 117 Q 663 118 665 114 L 662 114 L 660 114 L 660 129 L 661 131 L 660 132 L 610 132 L 611 138 Q 607 136 600 137 L 600 139 L 598 137 L 592 138 Q 598 142 611 140 Q 612 138 613 141 L 563 141 L 562 142 L 561 140 L 564 139 L 566 140 L 568 140 L 572 140 L 568 137 L 566 137 L 564 138 L 558 138 L 561 136 L 560 133 Q 555 131 553 135 L 554 140 L 559 139 Q 560 143 558 142 L 558 144 L 557 146 L 557 170 L 556 171 L 557 176 Q 563 177 565 174 L 592 174 L 597 180 L 597 209 L 594 209 L 591 208 L 589 210 L 589 213 L 594 219 L 597 217 L 599 218 Q 606 219 609 215 L 612 216 Q 617 218 619 215 L 631 216 L 633 219 L 632 222 Q 631 224 634 223 Q 635 227 632 229 Q 631 235 634 238 Q 635 244 633 246 L 632 244 L 630 246 L 630 254 L 629 255 L 629 319 L 701 319 L 701 313 L 702 312 L 702 282 L 708 282 L 708 285 L 724 285 L 725 286 L 732 286 L 732 281 L 739 281 L 740 283 L 746 283 L 746 322 L 810 322 L 810 323 L 810 333 L 813 332 L 814 332 L 814 248 L 810 242 L 814 244 L 814 225 L 815 222 Q 816 219 818 221 L 840 220 L 846 217 Q 848 216 847 219 L 855 219 L 855 219 L 855 183 L 876 183 L 876 182 Q 871 183 872 180 L 883 178 L 886 178 Q 885 175 888 176 Q 889 173 891 175 L 890 172 L 890 142 L 891 141 L 891 132 L 855 132 L 854 133 L 852 132 L 845 134 L 849 136 L 846 137 L 843 137 L 846 136 L 843 133 L 817 133 L 815 135 L 810 135 Q 811 132 809 133 L 807 133 L 806 135 L 800 132 L 793 134 L 787 134 Q 784 135 786 137 L 785 136 L 782 137 Q 782 132 778 131 L 779 120 L 779 118 L 778 111 L 779 111 Q 778 115 781 114 L 783 102 L 783 59 L 778 57 L 776 58 L 774 57 L 750 57 L 748 57 L 742 51 L 745 41 L 744 40 L 745 38 L 745 29 L 743 28 L 742 20 L 745 21 Q 747 20 746 17 Q 741 11 730 13 Z M 746 22 L 745 26 L 746 26 L 746 22 Z M 667 75 L 665 77 L 665 88 Q 663 89 666 90 L 667 88 L 667 86 L 666 84 L 667 79 L 667 75 Z M 665 90 L 663 93 L 664 98 L 662 106 L 663 108 L 664 108 Q 663 104 666 105 L 665 103 L 665 95 L 666 94 L 665 90 Z M 571 137 L 571 138 L 574 139 Q 578 140 580 138 L 588 139 L 589 137 L 587 138 L 583 137 Q 576 135 575 138 L 571 137 Z M 194 232 L 194 992 L 332 992 L 332 923 L 401 923 L 401 992 L 609 992 L 609 992 L 609 923 L 678 923 L 678 509 L 678 508 L 609 508 L 609 439 L 402 439 L 401 440 L 401 508 L 333 508 L 332 508 L 332 232 L 194 232 Z " /><path fill="rgb(0,0,0)" stroke="rgb(0,0,0)" stroke-width="1" opacity="0" d="M 817.5 136 L 821 136.5 L 817.5 137 L 817.5 136 Z " /><path fill="rgb(0,0,0)" stroke="rgb(0,0,0)" stroke-width="1" opacity="0" d="M 856.5 179 L 858 182 L 855 181.5 L 856.5 179 Z " /><path fill="rgb(0,0,0)" stroke="rgb(0,0,0)" stroke-width="1" opacity="0" d="M 401 578 L 539 578 L 539 854 L 402.5 854 L 401 852.5 L 401 785 L 333.5 785 L 332 783.5 L 332 647 L 401 647 L 401 578 Z " /><path fill="rgb(3,2,2)" stroke="rgb(3,2,2)" stroke-width="1" opacity="0.9921568627450981" d="M 737.5 18 Q 739.8 18.8 739 22.5 L 738 23.5 L 738 32.5 L 739 33.5 L 739 50.5 L 744.5 58 L 746.5 59 L 774.5 59 L 777 60 Q 777.8 63.4 775 64.5 L 775 132.5 L 781.5 140 L 785.5 141 L 786.5 140 L 811.5 140 L 812.5 141 L 887 141.5 L 780.5 142 L 778 137 L 774 136 L 773 133.5 L 773 64.5 Q 778.2 62.3 774.5 60 L 743.5 60 L 742 58.5 L 739.5 54 L 737 55.5 L 737 23.5 L 738 19.5 L 737.5 18 Z " /><path fill="rgb(3,2,2)" stroke="rgb(3,2,2)" stroke-width="1" opacity="0.9921568627450981" d="M 705.5 20 L 706 22 Q 711.6 20.1 710 25 L 706 26 L 705.5 28 L 705.5 20 Z " /><path fill="rgb(3,2,2)" stroke="rgb(3,2,2)" stroke-width="1" opacity="0.9921568627450981" d="M 713 33 Q 716 32 715 35 L 717.5 35 L 720 40.5 L 719.5 42 L 725 43 L 725 46 L 729 46 Q 727.9 49.3 732 48 L 732 51.5 L 734 58 Q 737 56.8 736 60.5 L 738 64 Q 740.7 62.9 740 65.5 L 740.5 67 L 733 68 L 733 73 L 731.5 73 L 729.5 69 L 728.5 73 L 725 72 L 723.5 67 L 720.5 68 L 719 67.5 Q 721.5 75.8 714 73 L 714 67 L 710 67 L 710 72.5 L 713 73 L 713 78 Q 707.8 75.9 709 80.5 L 708 80.5 Q 708.9 77.5 704.5 79 Q 703 75.8 698 77 L 697.5 79 L 689 79 L 687 83 L 684.5 83 Q 681.8 84.4 683 89 L 687.5 88 L 688 98 L 683 98 L 683 103 L 678.5 103 L 675 104 L 675 93.5 L 674 92.5 L 674 66.5 L 675 64 L 702.5 64 L 705 63 L 704.5 60 L 669.5 60 L 669.5 59 L 701.5 59 L 704 58 L 705 55.5 Q 703.9 45.9 706 41 L 710 39.5 L 710 36 Q 714.5 37.5 713 33 Z M 706 46 L 706 57 L 709 58 Q 712 58 711 54 L 710 51 Q 712 44 706 46 Z " /><path fill="rgb(3,2,2)" stroke="rgb(3,2,2)" stroke-width="1" opacity="0.9921568627450981" d="M 669.5 63 L 670 135.5 L 665 138.5 L 663.5 142 L 562.5 142 L 561 143.5 L 563 147.5 L 562 148.5 L 562 171.5 L 561 172.5 L 597 173 L 598 175.5 L 598 214.5 L 597 214.5 L 597 179.5 L 591.5 174 L 557 173.5 Q 560.7 171.2 560 164.5 L 559 161.5 L 560 160.5 L 560 145.5 L 559 143.5 L 562.5 141 L 660.5 141 L 664 138.5 L 665.5 136 L 668 134.5 L 669 132.5 L 669.5 63 Z " /><path fill="rgb(3,2,2)" stroke="rgb(3,2,2)" stroke-width="1" opacity="0.9921568627450981" d="M 751.5 72 L 754 72.5 L 751.5 73 L 751.5 72 Z " /><path fill="rgb(3,2,2)" stroke="rgb(3,2,2)" stroke-width="1" opacity="0.9921568627450981" d="M 733.5 78 L 743.5 78 L 744 81.5 L 745 88 L 740 88 L 740 83 L 734 83 L 734 79.5 L 733.5 78 Z " /><path fill="rgb(3,2,2)" stroke="rgb(3,2,2)" stroke-width="1" opacity="0.9921568627450981" d="M 766.5 88 L 769 89 L 769 117.5 L 766.5 118 L 761 114.5 L 764 114 L 764 99.5 L 766 98.5 L 766.5 88 Z " /><path fill="rgb(3,2,2)" stroke="rgb(3,2,2)" stroke-width="1" opacity="0.9921568627450981" d="M 745.5 102 L 750 102.5 L 745.5 103 L 745.5 102 Z " /><path fill="rgb(3,2,2)" stroke="rgb(3,2,2)" stroke-width="1" opacity="0.9921568627450981" d="M 833.5 146 Q 844.4 144.6 851.5 147 L 853 146.5 Q 854.4 151.1 848.5 149 L 843 150 L 843 154 L 837 154 Q 839.1 148.8 834.5 150 L 832 149 L 833.5 146 Z " /><path fill="rgb(3,2,2)" stroke="rgb(3,2,2)" stroke-width="1" opacity="0.9921568627450981" d="M 884.5 146 L 887 146.5 L 887 171.5 L 883.5 173 L 884 171.5 L 881 167.5 L 884 161.5 L 884 155.5 Q 881.2 153.8 883 147.5 L 884.5 146 Z " /><path fill="rgb(3,2,2)" stroke="rgb(3,2,2)" stroke-width="1" opacity="0.9921568627450981" d="M 566.5 147 L 570 147.5 L 566.5 148 L 566.5 147 Z " /><path fill="rgb(3,2,2)" stroke="rgb(3,2,2)" stroke-width="1" opacity="0.9921568627450981" d="M 847.5 173 L 875 173.5 L 851.5 174 L 849 176.5 L 846 182.5 L 846 215 L 811.5 215 L 810 216.5 L 806 227.5 L 806 317.5 L 808 322 Q 805 323.3 806 319.5 L 804 317.5 L 804 222.5 L 808 219.5 L 809 216.5 L 806 215 Q 804.5 211.2 807.5 212 L 809.5 214 L 845 214 L 845 177.5 L 847.5 173 Z " /><path fill="rgb(3,2,2)" stroke="rgb(3,2,2)" stroke-width="1" opacity="0.9921568627450981" d="M 603.5 214 L 633.5 214 L 634 217.5 L 635 220 L 639 220.5 L 639 316.5 L 641.5 318 L 642.5 317 L 689.5 317 L 695 316 L 696 288.5 L 698 283 L 702 280.5 L 703.5 277 L 734.5 277 L 738.5 276 L 740 280 L 743.5 281 L 746 280 L 746 277 Q 742.2 278.5 743 275.5 L 746 274 L 746 264.5 L 747.5 264 L 749 264.5 Q 747.8 258.4 750.5 259 L 754.5 257 Q 757.3 258.4 756 263 Q 762.4 260.7 760 268.5 L 761.5 268 L 765 268.5 L 765 284 L 755 285 Q 756.1 288.3 752 287 L 751 282 L 747 283.5 L 746.5 287 L 744.5 282 L 736.5 280 L 715.5 280 L 710.5 281 L 706.5 280 Q 705.4 282.8 702 282 Q 703.7 291 700 295.5 L 700 312.5 L 701 316.5 L 696.5 319 L 638.5 319 L 637 317.5 L 637 224.5 L 631.5 215 L 603.5 215 L 603.5 214 Z " /><path fill="rgb(3,2,2)" stroke="rgb(3,2,2)" stroke-width="1" opacity="0.9921568627450981" d="M 792 228 Q 795.8 227 797 229.5 L 797 232 L 800 232.5 L 800 257 Q 795.1 258.8 797 252.5 L 796 248.5 Q 798.3 247.2 797 242.5 L 796 238 Q 792.2 239 791 236.5 L 792 228 Z " /><path fill="rgb(3,2,2)" stroke="rgb(3,2,2)" stroke-width="1" opacity="0.9921568627450981" d="M 673.5 293 L 678 293.5 L 673.5 294 L 673.5 293 Z " /><path fill="rgb(3,2,2)" stroke="rgb(3,2,2)" stroke-width="1" opacity="0.9921568627450981" d="M 667 295 L 672 295 L 672 298.5 L 673 305 L 677 305 L 677 309 Q 680 308 679 311 L 684 311 L 684.5 309 L 692 309 L 693 314 L 684.5 314 L 683.5 313 L 682.5 314 L 657.5 314 L 651 313 L 652 305.5 L 653.5 304 Q 657.7 305.3 656 300.5 Q 656.8 297.3 661.5 298 Q 662.6 300.8 666 300 L 667 295 Z " /><path fill="rgb(3,2,2)" stroke="rgb(3,2,2)" stroke-width="1" opacity="0.9921568627450981" d="M 683 297 Q 688.7 296.1 692 298.5 L 688 299 L 688 304 L 678 304 L 678 299 L 683 299 L 683 297 Z " /><path fill="rgb(3,2,2)" stroke="rgb(3,2,2)" stroke-width="1" opacity="0.9921568627450981" d="M 746.5 309 L 747 321.5 L 746 321.5 L 746.5 309 Z " /><path fill="rgb(0,0,0)" stroke="rgb(0,0,0)" stroke-width="1" opacity="0.6745098039215687" d="M 887 141 L 890 141.5 L 890 169.5 L 888.5 169 L 887 168.5 L 887 141 Z " /><path fill="rgb(0,0,0)" stroke="rgb(0,0,0)" stroke-width="1" opacity="0.6745098039215687" d="M 557 174 L 564 174.5 Q 562.4 177.5 557 176 L 557 174 Z " /><path fill="rgb(0,0,0)" stroke="rgb(0,0,0)" stroke-width="1" opacity="0.6745098039215687" d="M 887 174 L 889 174.5 L 887 175.5 L 887 174 Z " /><path fill="rgb(0,0,0)" stroke="rgb(0,0,0)" stroke-width="1" opacity="0.6745098039215687" d="M 597 215 L 605 215.5 L 604 218 Q 598.6 219.5 597 216.5 L 597 215 Z " /><path fill="rgb(0,0,0)" stroke="rgb(0,0,0)" stroke-width="1" opacity="0.6745098039215687" d="M 843.5 215 L 847 216.5 L 844.5 218 L 843.5 215 Z " /><path fill="rgb(0,0,0)" stroke="rgb(0,0,0)" stroke-width="1" opacity="0.6745098039215687" d="M 401 439 L 608.5 439 L 609 439.5 L 609 508 L 678 508 L 678 922.5 L 677 922.5 L 677 509.5 L 676.5 509 L 609.5 509 L 608 507.5 L 608 440 L 402.5 440 L 402 440.5 L 402 507.5 L 400.5 509 L 332.5 509 L 332.5 508 L 401 508 L 401 439 Z " /><path fill="rgb(0,0,0)" stroke="rgb(0,0,0)" stroke-width="1" opacity="0.6745098039215687" d="M 401.5 577 L 540 577 L 540 853.5 L 539 853.5 L 539 578 L 401.5 578 L 401.5 577 Z " /><path fill="rgb(0,0,0)" stroke="rgb(0,0,0)" stroke-width="1" opacity="0.6745098039215687" d="M 332.5 646 L 401 646.5 L 332.5 647 L 332.5 646 Z " /><path fill="rgb(0,0,0)" stroke="rgb(0,0,0)" stroke-width="1" opacity="0.6745098039215687" d="M 401.5 923 L 402 991.5 L 401 991.5 L 401.5 923 Z " /><path fill="rgb(0,0,0)" stroke="rgb(0,0,0)" stroke-width="1" opacity="0.6745098039215687" d="M 608.5 923 L 609 991.5 L 608 991.5 L 608.5 923 Z " /><path fill="rgb(0,0,0)" stroke="rgb(0,0,0)" stroke-width="1" opacity="1" d="M 705 18 L 736.5 18 L 738 19.5 L 737 23.5 L 737 55.5 L 739.5 54 L 741 55.5 L 743.5 60 L 774.5 60 L 776 61.5 L 773 64.5 L 773 133.5 L 774 136 L 778 137 L 780.5 142 L 886.5 142 L 887 146 L 883 147.5 L 884 161.5 L 881 167.5 L 884 171.5 L 882.5 173 L 847.5 173 L 846 174.5 L 845 177.5 L 845 214 L 809.5 214 L 806 212 Q 804.5 215.7 807.5 215 L 809 217.5 L 806.5 221 L 804 222.5 L 804 317.5 Q 806.8 318.6 806 322 L 747 322 L 747 283.5 L 751 282 L 752 287 Q 756.3 288 755.5 285 L 760.5 285 L 765 284 L 765 268.5 L 761.5 268 L 760 268.5 L 760 263 Q 754 265.3 756 258.5 Q 754.8 255.8 753.5 258 L 749 259 L 748.5 265 L 746 264 L 746 273.5 L 744.5 274 L 743 277 Q 747.5 275.5 746 280 L 743.5 281 L 740 280 L 738.5 276 L 734.5 277 L 703.5 277 L 702 278.5 Q 702.5 282.5 699.5 283 Q 697.3 282.3 698 284.5 L 696 288.5 L 695 316 L 689.5 317 L 642.5 317 L 640.5 318 L 639 316.5 L 639 220 L 635 220 L 635 218.5 L 634 214 L 603.5 214 L 598 215 L 598 175.5 L 597 173 L 561 172.5 L 562 171.5 L 562 148.5 L 563 147.5 L 561 143.5 L 562.5 142 L 663.5 142 L 665 140.5 L 666.5 137 L 670 135.5 L 670 63.5 L 669 60 L 704.5 60 L 705 63 L 702.5 64 L 675 64 L 674 66.5 L 674 92.5 L 675 93.5 L 675 104 L 683 103 Q 680.5 95.5 688 98 L 688 88.5 L 686.5 89 Q 680.8 90.8 683 84.5 L 687 83 L 689 79 L 697.5 79 Q 696.5 75.8 702.5 77 Q 703.8 80 708 79 L 708.5 81 L 709 78 Q 715.4 80.1 713 73 L 710 73 L 710 67 L 714 67 L 714 73 L 719 73 L 719.5 67 L 722.5 68 L 724 67.5 L 725 72 L 728.5 73 L 729.5 69 L 731.5 73 L 733 73 L 733 68 L 735.5 68 L 741 66.5 L 740 64 Q 737.3 65.1 738 62.5 Q 735.3 61.4 736 58 Q 733.3 59.1 734 56.5 L 732 48 Q 727.9 49.3 729 46 L 725 46 Q 726.5 42.3 723.5 43 L 719 41.5 L 720 38.5 L 717.5 35 L 715 35 Q 716 32 713 33 Q 714.5 37.5 710 36 L 710 39.5 L 706 41 L 705.5 44 L 705 28.5 L 706 26 L 710 25 L 710 22 L 706 22 L 706 20.5 L 705 18 Z M 752 72 L 752 73 L 754 73 L 752 72 Z M 734 78 L 734 80 L 734 83 L 740 83 L 740 88 L 745 88 L 744 82 L 744 78 L 734 78 Z M 767 88 L 766 99 L 764 100 L 764 114 L 761 115 L 767 118 L 769 118 L 769 89 L 767 88 Z M 746 102 L 746 103 L 750 103 L 746 102 Z M 834 146 L 832 149 L 835 150 Q 839 149 837 154 L 843 154 L 843 150 L 849 149 Q 854 151 853 147 L 852 147 Q 844 145 834 146 Z M 567 147 L 567 148 L 570 148 L 567 147 Z M 792 228 L 791 237 Q 792 239 796 238 L 797 243 Q 798 247 796 249 L 797 253 Q 795 259 800 257 L 800 233 L 797 232 L 797 230 Q 796 227 792 228 Z M 674 293 L 674 294 L 678 294 L 674 293 Z M 667 295 L 666 300 Q 663 301 662 298 Q 657 297 656 301 Q 658 305 654 304 L 652 306 L 651 313 L 658 314 L 683 314 L 684 313 L 685 314 L 693 314 L 692 309 L 685 309 L 684 311 L 679 311 Q 680 308 677 309 L 677 305 L 673 305 L 672 299 L 672 295 L 667 295 Z M 683 297 L 683 299 L 678 299 L 678 304 L 688 304 L 688 299 L 692 299 Q 689 296 683 297 Z " /><path fill="rgb(0,0,0)" stroke="rgb(0,0,0)" stroke-width="1" opacity="1" d="M 706 46 Q 712 43.8 710 50.5 L 711 53.5 Q 711.5 57.5 708.5 58 L 706 56.5 L 706 46 Z " /><path fill="rgb(0,0,0)" stroke="rgb(0,0,0)" stroke-width="1" opacity="1" d="M 194 232 L 332 232 L 332 508.5 L 332.5 509 L 400.5 509 L 402 507.5 L 402 440 L 607.5 440 L 608 440.5 L 608 507.5 L 609.5 509 L 677 509 L 677 923 L 608 923 L 608 991.5 L 607.5 992 L 402 992 L 402 923 L 332 923 L 332 992 L 194 992 L 194 232 Z M 401 577 L 401 646 L 332 646 L 332 785 L 401 785 L 401 854 L 402 854 L 540 854 L 540 577 L 401 577 Z " /></svg>