<?xml version="1.0" encoding="utf-8"?>
<svg width="1900px" height="200px" viewBox="0 0 1900 200" xmlns="http://www.w3.org/2000/svg">
  <g id="g31" transform="matrix(3.273511, 0, 0, -2.806377, 3008.437012, 462.890167)" style="">
    <g id="g33" transform="scale(0.1)">
      <path d="M 37401.6 127.5 L 120.555 127.5" style="fill:#ffffff;fill-opacity:1;fill-rule:nonzero;stroke:none" id="path35"/>
      <path d="M -8347.669 1667.213 L -8347.665 1667.213 C -8347.805 1666.719 -8345.038 1653.99 -8346.53 1651.392 C -8347.184 1650.275 -8373.015 1647.446 -8376.101 1647.446 C -8382.07 1647.446 -8376.939 1640.605 -8379.513 1631.657 C -8379.894 1630.343 -8396.41 1643.499 -8403.4 1643.499 C -8408.334 1643.499 -8431.836 1642.151 -8431.836 1663.267 C -8444.583 1654.351 -8435.266 1643.434 -8439.799 1627.71 C -8439.978 1627.087 -8459.94 1630.211 -8461.408 1631.657 C -8464.597 1634.815 -8467.764 1640.343 -8470.508 1643.499 C -8475.55 1649.355 -8467.437 1619.357 -8475.058 1623.763 C -8475.858 1624.224 -8497.807 1647.216 -8497.807 1639.551 C -8497.807 1634.784 -8493.897 1629.421 -8495.531 1623.763 C -8497.51 1616.889 -8506.68 1628.763 -8509.18 1631.657 C -8511.617 1634.486 -8509.552 1626.427 -8510.316 1623.763 C -8511.004 1621.363 -8521.344 1619.916 -8521.691 1619.819 C -8534.746 1616.595 -8544.805 1621.133 -8556.954 1631.657 C -8572.277 1644.945 -8554.505 1588.012 -8564.915 1600.084 C -8576.658 1613.666 -8590.54 1613.437 -8602.45 1623.763 C -8609.862 1630.211 -8606.298 1622.25 -8608.137 1615.871 C -8609.407 1611.462 -8617.076 1619.159 -8618.374 1619.819 C -8621.501 1621.363 -8631.537 1641.262 -8634.298 1631.657 C -8635.436 1627.71 -8633.16 1611.925 -8634.298 1607.977 C -8636.004 1602.057 -8642.83 1613.899 -8644.536 1607.977 C -8645.104 1606.004 -8645.102 1602.057 -8645.671 1600.084 C -8646.208 1598.206 -8647.189 1600.084 -8647.947 1600.084 C -8657.919 1600.084 -8669.9 1595.147 -8679.794 1600.084 C -8681.542 1600.939 -8689.538 1613.634 -8691.169 1607.977 C -8692.792 1602.352 -8687.231 1587.157 -8688.895 1584.294 C -8695.588 1572.651 -8730.716 1593.339 -8735.529 1596.136 C -8735.786 1596.269 -8741.322 1603.668 -8742.354 1600.084 C -8743.301 1596.795 -8741.406 1583.636 -8742.354 1580.347 C -8743.572 1576.106 -8782.185 1576.368 -8785.575 1576.368 C -8786.828 1576.368 -8793.109 1581.827 -8793.537 1580.347 C -8795.627 1573.08 -8790.31 1552.061 -8792.401 1544.794 C -8794.231 1538.44 -8813.642 1550.945 -8815.149 1552.686 C -8819.395 1557.62 -8816.999 1544.794 -8821.973 1544.794 C -8828.234 1544.794 -8859.874 1552.259 -8866.333 1544.794 C -8868.849 1541.885 -8866.396 1536.686 -8867.471 1532.953 C -8869.965 1524.297 -8893.822 1536.9 -8899.317 1536.9 C -8920.976 1522.979 -8892.958 1510.353 -8896.544 1504.127 C -8901.224 1496.002 -8924.715 1512.938 -8927.254 1504.127 C -8929.124 1497.634 -8924.773 1487.246 -8925.676 1479.085 C -8928.453 1477.732 -8931.227 1476.354 -8934.001 1474.981 C -8935.855 1475.531 -8937.919 1476.175 -8938.629 1476.484 C -8938.886 1476.596 -8958.944 1488.886 -8959.104 1488.332 C -8960.263 1484.307 -8957.849 1480.632 -8960.239 1476.484 C -8963.434 1470.94 -8977.84 1476.484 -8981.852 1476.484 C -8984.846 1476.484 -8981.625 1465.431 -8982.989 1460.698 C -8983.024 1460.572 -9007.639 1459.675 -9010.287 1460.698 C -9021.194 1464.905 -9013.091 1464.639 -9017.112 1464.639 C -9017.584 1464.639 -9018.321 1463.726 -9018.832 1463.594 C -9017.38 1461.126 -9010.608 1443.784 -9012.562 1437.001 C -9013.366 1434.211 -9014.835 1437.001 -9015.974 1437.001 C -9021.832 1437.001 -9041.565 1435.52 -9047.821 1440.945 C -9048.644 1441.664 -9049.339 1443.587 -9050.097 1444.904 C -9053.129 1446.22 -9056.15 1447.968 -9059.196 1448.851 C -9060.848 1449.328 -9070.579 1453.039 -9073.197 1455.499 C -9071.024 1450.457 -9068.146 1437.175 -9068.296 1437.001 C -9071.482 1433.316 -9080.902 1444.575 -9083.083 1437.001 C -9084.077 1433.551 -9081.944 1430.645 -9081.944 1429.107 C -9081.944 1428.198 -9101.161 1432.221 -9100.144 1425.16 C -9099.511 1420.766 -9095.595 1416.518 -9095.595 1413.313 C -9095.595 1408.045 -9098.627 1413.313 -9100.144 1413.313 L -9118.343 1413.313 C -9125.024 1413.313 -9115.432 1391.834 -9117.206 1385.672 C -9119.288 1378.445 -9130.592 1388.36 -9133.128 1389.619 C -9135.783 1390.933 -9139.196 1400.148 -9141.091 1393.569 C -9144.886 1380.395 -9154.305 1395.081 -9158.152 1381.727 C -9159.643 1376.554 -9158.822 1370.692 -9161.565 1365.933 C -9168.752 1353.456 -9180.019 1360.759 -9188.372 1361.644 L -9188.372 1342.77 C -9186.091 1337.594 -9183.451 1333.382 -9184.313 1330.391 C -9184.858 1328.497 -9186.396 1328.377 -9188.372 1329.126 L -9188.372 933.638 L -6493.604 921.099 C -6493.439 921.099 -6488.402 959.791 -6497.482 950.108 C -6500.681 946.7 -6496.856 962.038 -6500.01 958.195 C -6503.175 954.332 -6506.283 950.097 -6509.414 945.99 C -6510.756 946.367 -6513.429 947.552 -6514.178 947.552 C -6523.617 947.552 -6537.047 966.732 -6545.77 973.577 C -6545.781 973.595 -6545.814 973.595 -6545.826 973.606 C -6541.822 964.442 -6536.924 944.182 -6540.715 947.558 C -6560.52 965.224 -6580.022 985.841 -6599.805 1003.707 C -6604.188 1007.668 -6608.65 1010.98 -6613.123 1013.848 C -6613.951 1014.374 -6615.058 1015.599 -6615.651 1013.848 C -6616.97 1009.975 -6610.551 1010.283 -6611.86 1006.41 C -6612.754 1003.783 -6614.409 1005.798 -6615.651 1006.41 C -6622.014 1009.525 -6628.332 1013.36 -6634.617 1017.561 C -6635.209 1017.96 -6644.726 1027.286 -6644.726 1024.995 C -6644.726 1021.61 -6631.284 992.129 -6632.078 991.545 C -6644.077 982.726 -6656.669 1017.561 -6668.735 1017.561 C -6669.149 1017.561 -6669.999 1018.798 -6669.999 1017.561 C -6669.999 1015.948 -6663.066 1005.444 -6664.944 1002.692 C -6670.949 993.853 -6715.49 1035.014 -6715.49 1047.298 C -6718.711 1042.293 -6706.298 1014.832 -6708.96 1007.01 C -6710.212 1003.31 -6724.973 1029.615 -6735.496 1044.174 C -6747.708 1061.087 -6739.019 1042.66 -6750.66 1047.893 C -6763.319 1053.583 -6775.832 1061.966 -6788.48 1067.728 C -6818.327 1081.32 -6797.661 1058.634 -6829.007 1095.508 C -6832.138 1099.196 -6824.511 1080.649 -6830.259 1080.649 L -6846.698 1080.649 C -6857.59 1080.649 -6863.215 1073.309 -6874.498 1084.363 C -6876.533 1086.357 -6881.778 1093.726 -6880.816 1088.075 C -6880.011 1083.375 -6875.762 1080.646 -6877.025 1076.928 C -6878.759 1071.826 -6900.442 1101.317 -6908.002 1105.267 C -6905.463 1100.778 -6895.645 1077.925 -6897.244 1073.213 C -6898.664 1069.041 -6917.753 1082.485 -6919.989 1084.363 C -6926.017 1089.435 -6933.33 1088.426 -6940.208 1091.796 C -6944.267 1093.781 -6948.584 1093.865 -6952.308 1098.799 C -6952.364 1097.281 -6952.487 1095.684 -6952.844 1095.508 C -6959.073 1092.458 -6965.548 1092.885 -6971.799 1095.508 C -6981.551 1099.605 -6992.308 1120.088 -7000.863 1132.682 C -7003.335 1136.32 -7001.512 1127.072 -7002.127 1125.247 C -7003.916 1119.99 -7007.215 1124.117 -7009.709 1125.247 C -7034.121 1136.294 -7013.086 1127.315 -7022.345 1136.397 C -7024.996 1138.988 -7022.133 1128.961 -7024.873 1128.961 C -7028.429 1128.961 -7035.686 1133.503 -7038.773 1128.961 C -7038.885 1128.811 -7038.952 1114.85 -7038.773 1114.181 C -7045.382 1114.191 -7060.445 1114.376 -7065.321 1121.532 C -7069.324 1127.432 -7094.34 1147.674 -7096.912 1140.114 C -7097.985 1136.937 -7092.685 1119.179 -7091.365 1110.896 C -7095.48 1115.968 -7099.64 1120.752 -7103.644 1126.829 C -7108.329 1133.947 -7112.612 1144.071 -7117.298 1151.25 C -7122.8 1159.685 -7113.742 1126.188 -7117.298 1127.556 C -7118.819 1128.14 -7120.284 1129.073 -7121.749 1130.059 C -7123.27 1131.176 -7124.746 1132.52 -7126.255 1133.732 C -7137.416 1144.29 -7147.324 1164.585 -7157.869 1182.901 C -7160.799 1187.972 -7156.326 1156.371 -7161.28 1163.15 C -7167.14 1171.159 -7172.787 1180.947 -7178.546 1189.845 C -7184.641 1198.423 -7190.679 1207.451 -7196.83 1215.596 C -7199.659 1219.354 -7196.226 1204.365 -7199.1 1207.695 C -7208.695 1218.792 -7200.788 1214.168 -7211.613 1219.542 C -7213.805 1220.631 -7213.794 1213.772 -7215.024 1215.596 C -7217.294 1218.971 -7225.122 1237.546 -7228.667 1231.389 C -7230.781 1227.733 -7227.459 1222.645 -7234.359 1227.439 C -7242.545 1233.122 -7251.592 1242.666 -7259.386 1247.175 C -7266.856 1251.504 -7284.391 1274.897 -7285.543 1270.87 C -7285.643 1270.518 -7284.011 1250.863 -7284.402 1251.134 C -7305.906 1266.06 -7325.745 1303.893 -7346.578 1327.2 C -7349.687 1330.674 -7343.615 1307.458 -7347.719 1307.458 C -7352.371 1307.458 -7362.021 1314.229 -7365.924 1307.458 C -7369.178 1301.808 -7361.597 1300.667 -7373.886 1303.508 C -7390.873 1307.437 -7416.929 1346.638 -7430.751 1370.63 C -7431.768 1372.398 -7420.183 1334.624 -7423.929 1339.047 C -7429.856 1346.047 -7471.076 1411.313 -7480.805 1411.313 C -7482.706 1411.313 -7476.052 1400.168 -7477.394 1395.516 C -7480.123 1386.021 -7485.032 1399.956 -7488.767 1403.416 C -7498.082 1412.036 -7493.799 1411.313 -7499.01 1411.313 C -7502.052 1411.313 -7497.836 1398.115 -7502.421 1403.416 C -7507.565 1409.368 -7530.557 1450.799 -7534.269 1450.799 C -7535.131 1450.799 -7528.577 1421.933 -7528.577 1419.21 C -7528.577 1412.351 -7552.822 1427.099 -7558.156 1427.099 C -7566.644 1427.099 -7578.732 1447.475 -7586.582 1454.749 C -7586.594 1454.775 -7586.616 1454.778 -7586.638 1454.785 L -7586.638 1454.78 C -7583.037 1445.043 -7578.631 1423.528 -7582.031 1427.116 C -7599.868 1445.88 -7617.413 1467.781 -7635.216 1486.765 C -7639.164 1490.967 -7643.178 1494.49 -7647.215 1497.535 C -7647.953 1498.092 -7648.949 1499.397 -7649.485 1497.535 C -7650.671 1493.42 -7644.889 1493.746 -7646.075 1489.635 C -7646.88 1486.843 -7648.367 1488.987 -7649.485 1489.635 C -7655.211 1492.943 -7660.892 1497.017 -7666.55 1501.476 C -7667.087 1501.9 -7675.653 1511.806 -7675.653 1509.374 C -7675.653 1505.779 -7663.553 1474.467 -7664.269 1473.84 C -7675.06 1464.472 -7686.4 1501.476 -7697.258 1501.476 C -7697.638 1501.476 -7698.399 1502.794 -7698.399 1501.476 C -7698.399 1499.76 -7692.159 1488.608 -7693.847 1485.685 C -7699.26 1476.293 -7739.339 1520.018 -7739.339 1533.067 C -7742.246 1527.75 -7731.064 1498.582 -7733.468 1490.27 C -7734.597 1486.343 -7747.883 1514.284 -7757.354 1529.75 C -7768.347 1547.721 -7760.519 1528.144 -7770.997 1533.706 C -7782.392 1539.747 -7793.654 1548.641 -7805.049 1554.792 C -7831.91 1569.23 -7813.302 1545.108 -7841.516 1584.294 C -7844.334 1588.209 -7837.468 1568.506 -7842.645 1568.506 L -7857.44 1568.506 C -7867.247 1568.506 -7872.313 1560.712 -7882.456 1572.453 C -7884.29 1574.559 -7889.009 1582.388 -7888.148 1576.401 C -7887.432 1571.4 -7883.596 1568.506 -7884.737 1564.559 C -7886.291 1559.133 -7905.817 1590.445 -7912.616 1594.656 C -7910.334 1589.886 -7901.489 1565.613 -7902.931 1560.614 C -7904.206 1556.174 -7921.394 1570.448 -7923.407 1572.453 C -7928.842 1577.848 -7935.417 1576.763 -7941.601 1580.347 C -7945.258 1582.453 -7949.139 1582.55 -7952.505 1587.78 C -7952.438 1589.954 -7952.549 1592.189 -7952.985 1592.189 C -7953.366 1592.189 -7953.321 1588.833 -7952.985 1588.243 C -7952.829 1587.98 -7952.65 1588.012 -7952.505 1587.78 C -7952.549 1586.172 -7952.661 1584.459 -7952.985 1584.294 C -7958.588 1581.038 -7964.414 1581.5 -7970.039 1584.294 C -7978.818 1588.635 -7988.491 1610.409 -7996.207 1623.763 C -7998.432 1627.646 -7996.777 1617.809 -7997.336 1615.871 C -7998.947 1610.28 -8001.91 1614.686 -8004.169 1615.871 C -8026.132 1627.613 -8007.199 1618.076 -8015.542 1627.71 C -8017.913 1630.475 -8015.341 1619.819 -8017.812 1619.819 C -8021.01 1619.819 -8027.552 1624.651 -8030.325 1619.819 C -8030.415 1619.655 -8030.482 1604.819 -8030.325 1604.128 C -8036.263 1604.128 -8049.828 1604.324 -8054.212 1611.925 C -8057.824 1618.208 -8080.335 1639.683 -8082.65 1631.657 C -8083.959 1627.12 -8074.755 1594.196 -8078.098 1596.136 C -8088.252 1602.025 -8079.787 1596.993 -8091.747 1615.871 C -8097.321 1624.687 -8097.812 1614.425 -8099.709 1615.871 C -8106.629 1621.199 -8113.524 1627.907 -8120.182 1635.604 C -8123.023 1638.896 -8119.557 1625.21 -8122.458 1627.71 C -8133.81 1637.577 -8144.75 1655.371 -8156.581 1655.371 C -8166.075 1660.701 -8151.666 1625.049 -8154.305 1615.871 C -8155.109 1613.074 -8156.58 1615.871 -8157.717 1615.871 C -8161.631 1615.871 -8184.718 1616.921 -8185.016 1615.871 C -8186.375 1611.165 -8181.92 1608.206 -8187.292 1611.925 C -8191.225 1614.654 -8197.258 1627.975 -8199.803 1631.657 C -8203.244 1636.658 -8207.581 1643.302 -8211.177 1647.478 C -8214.264 1651.031 -8209.039 1639.584 -8212.314 1639.584 L -8218.001 1639.584 L -8227.103 1639.584 C -8227.861 1639.584 -8229.375 1642.216 -8229.375 1639.584 C -8229.375 1634.784 -8226.701 1629.454 -8230.514 1631.657 C -8235.686 1634.651 -8239.252 1639.257 -8244.162 1643.53 C -8247.151 1646.099 -8251.574 1642.116 -8254.399 1643.53 C -8257.948 1645.275 -8262.048 1649.255 -8265.773 1651.425 C -8269.634 1653.663 -8267.736 1648.531 -8269.186 1643.53 C -8269.979 1640.769 -8279.569 1643.169 -8280.56 1643.53 C -8281.721 1643.925 -8292.295 1654.123 -8293.072 1651.425 C -8294.232 1647.381 -8291.819 1643.728 -8294.209 1639.584 C -8300.284 1629.028 -8308.652 1636.526 -8314.682 1643.53 C -8317.714 1647.019 -8314.304 1641.328 -8315.82 1639.584 C -8318.338 1636.658 -8321.208 1637.348 -8323.783 1639.584 C -8326.418 1641.854 -8346.993 1669.549 -8347.669 1667.213 Z M -7586.638 1454.78 C -7588.059 1458.613 -7589.356 1460.934 -7590.004 1458.702 C -7590.843 1455.79 -7587.824 1455.816 -7586.638 1454.78 Z M -6952.308 1098.799 C -6952.24 1100.849 -6952.364 1102.946 -6952.844 1102.946 C -6953.269 1102.946 -6953.225 1099.785 -6952.844 1099.229 C -6952.677 1098.984 -6952.475 1099.019 -6952.308 1098.799 Z M -6908.002 1105.267 C -6908.113 1105.473 -6908.527 1106.544 -6908.617 1106.661 C -6908.986 1107.217 -6910.305 1106.661 -6909.88 1106.661 C -6909.511 1106.661 -6908.516 1105.539 -6908.002 1105.267 Z M -9018.832 1463.594 C -9018.995 1463.872 -9019.387 1464.801 -9019.387 1464.639 C -9019.387 1463.652 -9019.141 1463.513 -9018.832 1463.594 Z M -7914.304 1596.136 C -7913.969 1596.136 -7913.085 1594.95 -7912.616 1594.656 C -7912.716 1594.854 -7913.097 1596.004 -7913.175 1596.136 C -7913.51 1596.728 -7914.685 1596.136 -7914.304 1596.136 Z M -9074.303 1457.364 C -9074.632 1457.628 -9074.913 1457.481 -9075.124 1456.752 C -9075.209 1456.454 -9073.616 1455.896 -9073.2 1455.504 C -9073.597 1456.425 -9073.974 1457.099 -9074.303 1457.364" style="fill: rgb(0, 0, 0); fill-opacity: 1; fill-rule: nonzero; stroke: none;" id="path37"/>
    </g>
  </g>
</svg>