<svg xmlns="http://www.w3.org/2000/svg" viewBox="0 0 500 500" xmlns:v="https://vecta.io/nano"><path fill="rgb(0%, 0%, 0%)" d="M444.951 151.54l-2.963 8.845c11.349 55.505 7.155 115.811-21.489 181.661 4.159-42.288 3.468-82.74-3.067-121.508-7.713 15.007-17.547 29.557-27.621 44.192 1.434 42.051-6.414 86.426-26.995 133.784 3.301-33.631 2.697-66.051-.605-97.578-13.488 15.344-28.546 30.08-45.42 43.568-3.992 26.676-11.517 54.28-23.931 82.859 2.221-22.702 2.594-45.135 1.837-66.893-37.404 25.43-81.817 45.773-135.622 57.074 45.321-25.431 81.477-51.668 111.085-78.564-19.472-4.058-39.509-6.719-59.535-8.587 26.474-6.688 52.613-9.297 77.94-8.59 18.105-18.509 33.228-37.136 45.422-56.469-33.766-6.078-67.939-7.829-102.495-5.525 39.658-19.195 79.186-25.898 118.442-23.322 10.14-20.883 17.076-42.491 22.095-64.435-29.859-2.829-62.38 4.262-99.431 13.507 33.449-30.652 69.605-43.953 105.56-47.862 1.872-15.209 2.847-30.448 3.034-46.161C215.343-26.469 259.279 370.423-.51 434.184c213.763 132.42 627.681-59.601 445.461-282.626v-.018zM406.317 22.068c10.577-5.138 23.41-5.44 33.142 3.686 5.558 52.26-11.449 162.735-78.563 239.971 51.179-93.27 54.919-160.798 45.421-243.643v-.014zm0 0"/></svg>