<svg viewBox="0 0 500 500" xmlns="http://www.w3.org/2000/svg"><path d="M187.688 414.282c-29.179-4.255-59.25-15.755-83.642-31.983-18.612-12.384-47.634-38.343-59.7-53.399-12.029-15.01-39.208-53.836-37.687-53.836.514 0 6.045 3.077 12.289 6.836 17.719 10.67 37.605 16.099 59.559 16.261 29.167.213 44.035-8.212 70.113-39.733 43.078-52.069 78.782-74.988 143.472-92.098 21.204-5.607 67.597-7.617 96.977-4.197 36.448 4.24 54.043-2.799 71.089-28.44 9.933-14.941 21.609-40.362 21.609-47.046 0-2.251.795-4.585 1.765-5.183.971-.6 2.355 4.557 3.076 11.457 6.587 63.019-16.22 145.995-56.368 205.068-26.408 38.859-69.434 75.934-111.328 95.928-38.466 18.36-90.068 26.368-131.224 20.365zm60.317-55.534c44.133-8.321 82.858-37.759 106.681-81.098 5.108-9.292 4.327-13.425-1.577-8.358-6.918 5.936-41.321 24.587-64.098 34.751-22.628 10.097-58.899 20.743-78.942 23.17l-10.252 1.242 13.329-12.593c7.33-6.926 26.247-23.396 42.036-36.601 37.172-31.088 51.601-44.47 49.86-46.244-2.115-2.154-29.401 2.823-46.544 8.488-23.549 7.784-40.754 20.356-73.927 54.025l-29.866 30.311-16.917 5.538c-9.304 3.046-16.917 6.201-16.917 7.011 0 2.791 18.149 10.281 38.272 15.794 31.008 8.495 60.085 9.989 88.862 4.564zm0 0"/></svg>