<?xml version="1.0" encoding="utf-8"?>
<svg width="1900px" height="250px" viewBox="0 0 1900 250" xmlns="http://www.w3.org/2000/svg">
  <defs>
    <clipPath id="clip-7">
      <path clip-rule="nonzero" d="M 1143 1944 L 2516 1944 L 2516 2548.351562 L 1143 2548.351562 Z M 1143 1944 "/>
    </clipPath>
  </defs>
  <g clip-path="url(#clip-7)" transform="matrix(0.301362, 0.002327, 0, 0.417844, 887.539368, -818.769226)" style="">
    <path fill-rule="evenodd" fill-opacity="1" d="M 1707.230469 2185.878906 C 1732.648438 2173.171875 1773.359375 2094.789062 1794.308594 2050.308594 C 1809.738281 2017.550781 1824.71875 1975.621094 1831.550781 1955.78125 C 1834 1948.660156 1835.398438 1944.378906 1835.398438 1944.378906 C 1835.398438 1944.378906 1902.109375 2096.910156 2008.039062 2200.710938 C 2113.949219 2304.511719 2111.839844 2302.390625 2118.179688 2291.789062 C 2124.539062 2281.210938 2173.269531 2181.640625 2173.269531 2181.640625 C 2173.269531 2181.640625 2234.699219 2262.140625 2268.589844 2296.039062 C 2302.480469 2329.929688 2363.921875 2357.460938 2363.921875 2357.460938 C 2363.921875 2357.460938 2433.820312 2401.949219 2446.53125 2406.191406 C 2459.25 2410.421875 2488.820312 2372.289062 2504.75 2452.789062 C 2520.679688 2533.289062 2514.320312 2548.351562 2514.320312 2548.351562 L 1143.738281 2548.351562 L 1166.058594 2533.289062 C 1251.78125 2526.929688 1378.878906 2459.148438 1414.890625 2399.828125 C 1450.910156 2340.519531 1472.089844 2266.878906 1472.089844 2266.878906 C 1472.089844 2266.878906 1469.910156 2329.929688 1519.71875 2300.269531 C 1569.53125 2270.609375 1584.359375 2247.308594 1603.429688 2217.648438 C 1622.488281 2188 1626.730469 2179.519531 1633.089844 2143.511719 C 1639.441406 2107.5 1681.808594 2198.589844 1707.230469 2185.878906 " style="fill: rgb(77, 134, 175);"/>
  </g>
  <path fill-rule="evenodd" fill-opacity="1" d="M 1307.55 210.246 C 1310.105 207.608 1375.221 140.744 1382.883 114.347 C 1382.883 114.347 1401.393 124.224 1400.755 143.691 C 1400.117 163.159 1391.211 164.866 1400.775 169.361 C 1410.331 173.864 1415.44 173.9 1415.44 178.329 C 1415.44 182.754 1405.224 179.134 1411.608 194.23 C 1417.993 209.325 1430.762 219.451 1432.036 223.3 C 1433.316 227.147 1423.738 222.05 1409.055 223.122 C 1394.37 224.189 1386.453 229.729 1386.903 222.949 C 1387.352 216.171 1390.922 189.646 1386.903 188.732 C 1382.883 187.811 1384.161 193.134 1373.943 204.562 C 1363.729 215.991 1338.833 215.8 1338.833 215.8 C 1338.833 215.8 1326.704 221.017 1331.171 208.659 C 1335.642 196.3 1336.915 185.691 1336.28 190.994 C 1335.642 196.3 1307.55 210.246 1307.55 210.246" style="fill: rgb(112, 181, 223);"/>
  <path fill-rule="evenodd" fill-opacity="1" d="M 1415.44 107.516 C 1417.993 103.999 1439.068 39.54 1440.659 28.935 C 1442.249 18.324 1441.616 35.137 1443.529 42.23 C 1445.445 49.326 1447.998 60.966 1447.998 66.667 C 1447.998 72.363 1460.127 75.996 1463.319 76.907 C 1466.51 77.815 1456.296 73.314 1458.212 89.258 C 1460.127 105.207 1464.596 116.744 1472.893 115.043 C 1481.191 113.334 1495.877 115.398 1495.877 115.398 L 1467.15 128.276 C 1467.15 128.276 1469.705 146.334 1481.191 171.04 C 1492.684 195.742 1498.431 205.52 1498.431 205.52 C 1498.431 205.52 1476.09 206.234 1465.87 186.686 C 1455.658 167.129 1455.658 160.048 1447.358 148.483 C 1439.058 136.911 1427.709 124.902 1428.281 120.241 C 1428.847 115.589 1415.44 107.516 1415.44 107.516" style="fill: rgb(112, 181, 223);"/>
</svg>