<?xml version="1.0" encoding="utf-8"?>
<svg width="1900px" height="160px" viewBox="0 0 1900 160" xmlns="http://www.w3.org/2000/svg">
  <path fill-rule="nonzero" fill="rgb(0%, 0%, 0%)" fill-opacity="1" d="M 1004.035 12.437 C 998.163 12.959 989.941 21.75 987.451 23.168 C 979.918 27.463 970.843 37.084 962.246 39.129 C 952.568 41.428 940.782 36.554 932.002 40.724 C 928.169 42.543 928.072 50.839 925.278 53.49 C 923.732 54.959 919.03 57.833 916.874 59.879 C 914.314 62.311 894.568 81.645 893.348 82.22 C 887.651 84.929 880.524 78.019 876.549 74.243 C 874.933 72.711 868.587 75.248 866.464 74.243 C 859.472 70.92 868.262 74.349 864.783 71.049 C 858.248 64.844 842.264 43.066 829.497 47.109 C 825.162 48.481 818.297 50.033 814.371 51.897 C 811.27 53.37 804.174 63.181 800.932 66.262 L 789.17 77.433 C 786.858 79.627 783.077 80.029 780.765 82.22 C 778.861 84.031 778.51 87.284 775.727 88.608 C 763.931 94.207 751.749 97.404 740.439 104.569 C 737.879 106.188 735.141 109.595 733.714 110.952 C 732.016 112.563 709.704 123.039 706.83 123.719 C 702.1 124.844 697.653 127.156 693.386 128.512 C 689.857 129.626 685.154 127.39 681.624 128.512 C 673.99 130.926 666.957 134.216 659.779 136.488 C 658.276 136.962 657.841 139.009 656.422 139.681 C 652.683 141.454 648.393 142.695 644.653 144.47 C 641.587 145.93 641.357 150.797 639.616 152.452 C 637.29 154.659 631.933 157.992 628.087 159.679 L 1325.808 159.679 C 1323.593 157.942 1321.828 155.623 1320.168 154.045 C 1318.185 152.168 1314.053 153.534 1311.764 152.452 C 1308.016 150.668 1305.216 147.829 1303.363 146.063 C 1301.455 144.252 1290.956 146.711 1288.239 146.063 C 1280.153 144.147 1272.403 138.925 1264.712 136.488 C 1257.309 134.145 1253.12 124.158 1244.55 122.124 C 1237.629 120.48 1207.822 107.761 1205.899 107.761 C 1203.167 107.761 1205.475 110.752 1202.539 109.355 C 1193.448 105.034 1188.563 94.587 1180.697 88.608 C 1172.698 82.53 1161.57 75.227 1155.489 69.454 C 1146.669 61.076 1133.571 69.526 1126.922 75.838 C 1124.129 78.493 1121.589 84.825 1118.521 87.01 C 1114.835 89.637 1088.297 101.385 1084.912 99.783 C 1082.597 98.676 1082.653 96.034 1081.552 94.991 C 1078.792 92.371 1070.076 89.141 1068.113 85.415 C 1065.96 81.328 1063.37 76.12 1059.708 72.644 C 1054.662 67.849 1047.23 63.681 1041.224 59.879 C 1037.914 57.78 1036.051 53.243 1034.504 50.3 C 1032.087 45.712 1025.987 44.838 1022.739 40.724 C 1016.589 32.936 1013.352 19.035 1007.617 13.593 C 1006.614 12.636 1005.388 12.317 1004.035 12.437" style=""/>
</svg>